<svg width="21" height="22" viewBox="0 0 21 22" fill="none" xmlns="http://www.w3.org/2000/svg">
<path d="M13.7812 10.793C13.7812 11.6632 13.4355 12.4978 12.8202 13.1132C12.2048 13.7285 11.3702 14.0742 10.5 14.0742C9.62976 14.0742 8.79516 13.7285 8.17981 13.1132C7.56445 12.4978 7.21875 11.6632 7.21875 10.793C7.21875 10.6059 7.23844 10.4233 7.27234 10.2461H6.125V14.6178C6.125 14.9219 6.37109 15.168 6.67516 15.168H14.3259C14.4717 15.1677 14.6113 15.1096 14.7143 15.0064C14.8172 14.9033 14.875 14.7635 14.875 14.6178V10.2461H13.7277C13.7616 10.4233 13.7812 10.6059 13.7812 10.793ZM10.5 12.9805C10.7873 12.9804 11.0718 12.9237 11.3373 12.8137C11.6027 12.7037 11.8439 12.5424 12.047 12.3392C12.2502 12.136 12.4113 11.8947 12.5212 11.6292C12.631 11.3638 12.6876 11.0792 12.6875 10.7919C12.6874 10.5045 12.6308 10.22 12.5207 9.95459C12.4107 9.68915 12.2495 9.44798 12.0462 9.24485C11.843 9.04173 11.6018 8.88061 11.3363 8.77072C11.0708 8.66083 10.7862 8.6043 10.4989 8.60437C9.9186 8.60452 9.36212 8.83519 8.95188 9.24563C8.54165 9.65607 8.31126 10.2127 8.31141 10.793C8.31155 11.3733 8.54222 11.9298 8.95266 12.34C9.3631 12.7502 9.91969 12.9806 10.5 12.9805ZM13.125 8.49609H14.4364C14.5235 8.49609 14.6071 8.46156 14.6688 8.40005C14.7305 8.33855 14.7653 8.25509 14.7656 8.16797V6.85656C14.7656 6.76925 14.7309 6.68551 14.6692 6.62377C14.6075 6.56203 14.5237 6.52734 14.4364 6.52734H13.125C13.0377 6.52734 12.9539 6.56203 12.8922 6.62377C12.8305 6.68551 12.7958 6.76925 12.7958 6.85656V8.16797C12.7969 8.34844 12.9445 8.49609 13.125 8.49609ZM10.5 0.292969C7.71523 0.292969 5.04451 1.39922 3.07538 3.36835C1.10625 5.33748 0 8.0082 0 10.793C0 13.5777 1.10625 16.2485 3.07538 18.2176C5.04451 20.1867 7.71523 21.293 10.5 21.293C11.8789 21.293 13.2443 21.0214 14.5182 20.4937C15.7921 19.966 16.9496 19.1926 17.9246 18.2176C18.8996 17.2426 19.6731 16.0851 20.2007 14.8111C20.7284 13.5372 21 12.1718 21 10.793C21 9.41409 20.7284 8.04871 20.2007 6.77479C19.6731 5.50087 18.8996 4.34336 17.9246 3.36835C16.9496 2.39333 15.7921 1.61991 14.5182 1.09223C13.2443 0.564559 11.8789 0.292969 10.5 0.292969ZM15.9688 15.0466C15.9688 15.7148 15.4219 16.2617 14.7536 16.2617H6.24641C5.57812 16.2617 5.03125 15.7148 5.03125 15.0466V6.53937C5.03125 5.87109 5.57812 5.32422 6.24641 5.32422H14.7536C15.4219 5.32422 15.9688 5.87109 15.9688 6.53937V15.0466Z" fill="#E6E6E6"/>
</svg>
