<svg width="51" height="49" viewBox="0 0 51 49" fill="none" xmlns="http://www.w3.org/2000/svg">
<g filter="url(#filter0_d_12_2737)">
<path d="M28.2566 8.61096C26.4561 9.71125 25.8847 12.071 26.9834 13.8712C28.0818 15.6713 30.4404 16.2408 32.2411 15.1404C33.9008 14.1261 34.5159 12.0416 33.7416 10.3119C33.7414 10.3112 33.741 10.3107 33.7409 10.3101C33.729 10.2838 33.7169 10.2576 33.7044 10.2313C33.7022 10.2267 33.6999 10.2219 33.6977 10.2173C33.6851 10.191 33.6722 10.1649 33.6589 10.1386C33.6584 10.1378 33.658 10.137 33.6576 10.1362C33.644 10.1096 33.6301 10.0831 33.6159 10.0567C33.6124 10.0504 33.6089 10.0441 33.6055 10.0377C33.5945 10.0176 33.5833 9.99773 33.5719 9.97779C33.5678 9.9706 33.5636 9.9633 33.5595 9.95612C33.5448 9.93077 33.5299 9.90529 33.5144 9.87991C33.4985 9.85373 33.4821 9.82792 33.4657 9.8024C33.4589 9.79174 33.4518 9.78113 33.4447 9.77052C33.4352 9.75622 33.4258 9.74192 33.4162 9.72779C33.4068 9.71377 33.397 9.69997 33.3875 9.68612C33.3804 9.67607 33.3736 9.66614 33.3665 9.65626C33.3548 9.63986 33.3431 9.62345 33.331 9.60726C33.3265 9.60102 33.3219 9.59494 33.3174 9.5887C33.3032 9.56951 33.2886 9.55052 33.2742 9.53166C33.2731 9.5301 33.272 9.52882 33.2709 9.52726C33.039 9.22852 32.7644 8.96704 32.4579 8.75033C32.4416 8.73889 32.4253 8.72745 32.4091 8.71629C32.4057 8.71381 32.4023 8.7116 32.3987 8.70928C31.1953 7.89512 29.5761 7.80463 28.2566 8.61096Z" fill="#B53071"/>
<path d="M30.2148 9.24196C29.8173 8.71405 29.067 8.60874 28.5389 9.00674C28.0108 9.40475 27.9049 10.1554 28.3023 10.6833C28.6998 11.2112 29.4501 11.3165 29.9782 10.9185C30.5063 10.5205 30.6122 9.76988 30.2148 9.24196Z" fill="#B53071"/>
<path d="M32.6948 13.3077C32.4107 12.711 31.6966 12.4581 31.0998 12.7428C30.5031 13.0274 30.2496 13.7419 30.5337 14.3386C30.8178 14.9353 31.5319 15.1883 32.1286 14.9036C32.7254 14.6189 32.9789 13.9044 32.6948 13.3077Z" fill="#B53071"/>
<path d="M29.5956 13.5685C29.87 12.9668 29.605 12.2569 29.0037 11.9829C28.4024 11.7089 27.6925 11.9746 27.4181 12.5763C27.1437 13.178 27.4087 13.8879 28.01 14.1619C28.6113 14.4359 29.3212 14.1702 29.5956 13.5685Z" fill="#B53071"/>
<path d="M33.457 11.2089C33.7314 10.6072 33.4664 9.89735 32.8651 9.62338C32.2638 9.3494 31.5539 9.61508 31.2794 10.2168C31.005 10.8185 31.27 11.5284 31.8713 11.8023C32.4727 12.0763 33.1826 11.8106 33.457 11.2089Z" fill="#B53071"/>
<path d="M31.0786 17.2598C30.1077 16.1777 28.4431 16.0886 27.3605 17.0606C26.2779 18.0327 26.1874 19.6979 27.1582 20.7799C28.1291 21.862 29.7937 21.9512 30.8763 20.9791C31.9589 20.007 32.0494 18.3419 31.0786 17.2598Z" fill="#FFF6E1"/>
<path d="M22.9178 23.9726C22.6839 22.5372 21.3309 21.5642 19.8957 21.7993C18.4605 22.0344 17.4866 23.3887 17.7205 24.8241C17.9543 26.2595 19.3074 27.2325 20.7426 26.9973C22.1777 26.7622 23.1516 25.408 22.9178 23.9726Z" fill="#FFF6E1"/>
<path d="M32.3994 15.4001C30.4555 16.588 27.9094 15.9735 26.7235 14.03C25.5375 12.0865 26.154 9.53914 28.098 8.35123C28.9966 7.802 30.0238 7.63836 30.986 7.81294C30.268 7.14037 29.6599 6.91259 29.2675 6.84167C28.9287 6.78057 28.6916 6.82334 28.5965 6.84794L24.8029 9.16631L24.8017 9.16418C24.7937 9.17043 24.7856 9.1764 24.7768 9.18206L19.4429 12.6568L19.0785 12.8793L13.5592 16.0373L9.7373 18.3728C9.67246 18.4459 9.52586 18.6373 9.4254 18.9674C9.30923 19.3491 9.23411 19.9945 9.50386 20.9408C9.78816 20.0046 10.4029 19.165 11.3015 18.6158C13.2455 17.4279 15.7915 18.0424 16.9775 19.9859C18.1634 21.9294 17.5469 24.4767 15.6029 25.6646C14.1857 26.5307 12.4485 26.4383 11.1513 25.5718C12.0019 27.8187 13.6987 32.1481 14.7227 33.7321C15.4387 34.8395 16.1865 35.6196 16.9452 36.0502C17.6757 36.465 18.3781 36.5311 19.0326 36.2466C19.7103 35.9521 20.2733 35.2876 20.5773 34.4233C20.8198 33.7343 21.017 32.5912 20.5792 31.0587C20.2402 29.8721 20.6789 28.6166 21.8835 27.3272C22.8387 26.3047 24.2529 25.2642 26.2069 24.1467C28.0928 22.9176 29.6637 22.1337 31.009 21.7505C32.7052 21.2673 34.0217 21.4501 34.9219 22.2938C36.0843 23.3835 37.1906 23.73 37.9136 23.8289C38.8207 23.9529 39.6685 23.7552 40.2401 23.2863C40.7917 22.8336 41.0539 22.1783 41.0188 21.3385C40.9823 20.4662 40.6306 19.4441 39.9731 18.3009C39.0326 16.6657 35.9591 13.1778 34.3499 11.3945C34.528 12.9452 33.8167 14.534 32.3994 15.4001ZM23.3673 13.3869L24.3487 12.787C24.7103 12.566 25.1839 12.6803 25.4045 13.0419C25.6252 13.4034 25.5105 13.8773 25.1488 14.0982L24.1673 14.6981C23.8057 14.9191 23.3321 14.8048 23.1115 14.4432C22.891 14.0818 23.0057 13.608 23.3673 13.3869ZM16.9572 17.3042L17.9387 16.7043C18.3002 16.4833 18.7738 16.5976 18.9944 16.9592C19.2151 17.3207 19.1004 17.7946 18.7387 18.0155L17.7572 18.6154C17.3956 18.8364 16.922 18.7221 16.7015 18.3605C16.4809 17.9991 16.5956 17.5252 16.9572 17.3042ZM21.8491 26.905C20.4665 27.75 18.6555 27.3128 17.8119 25.9305C16.9683 24.5482 17.407 22.7364 18.7896 21.8914C20.1721 21.0464 21.9831 21.4836 22.8267 22.8658C23.6702 24.2483 23.2316 26.0601 21.8491 26.905ZM22.8386 18.6137L22.8326 18.6175L22.8268 18.6211C22.2064 19.0002 21.3937 18.8041 21.0151 18.1838C20.6365 17.5635 20.8333 16.7504 21.4537 16.3712L21.4601 16.3673L21.4655 16.3639C22.0859 15.9847 22.8986 16.1809 23.2772 16.8011C23.6558 17.4214 23.459 18.2346 22.8386 18.6137ZM30.6492 21.5272C29.2666 22.3722 27.4556 21.935 26.612 20.5528C25.7684 19.1705 26.2071 17.3586 27.5897 16.5136C28.9722 15.6686 30.7832 16.1058 31.6268 17.4881C32.4703 18.8702 32.0318 20.6822 30.6492 21.5272Z" fill="url(#paint0_linear_12_2737)"/>
<path d="M30.2519 9.7525C30.1456 9.10006 29.5306 8.65779 28.8783 8.76467C28.2259 8.87154 27.7833 9.4871 27.8896 10.1395C27.9959 10.792 28.6109 11.2343 29.2632 11.1274C29.9156 11.0205 30.3582 10.4049 30.2519 9.7525Z" fill="#00030F"/>
<path d="M32.471 14.3897C32.7949 13.8131 32.5903 13.0834 32.0141 12.7599C31.4379 12.4364 30.7082 12.6417 30.3844 13.2183C30.0605 13.795 30.2651 14.5247 30.8413 14.8481C31.4175 15.1716 32.1472 14.9664 32.471 14.3897Z" fill="#00030F"/>
<path d="M29.3828 13.6024C29.6853 13.0143 29.4541 12.2927 28.8664 11.9906C28.2787 11.6885 27.5571 11.9204 27.2546 12.5085C26.9521 13.0966 27.1833 13.8183 27.771 14.1203C28.3587 14.4224 29.0803 14.1905 29.3828 13.6024Z" fill="#00030F"/>
<path d="M33.244 11.2428C33.5465 10.6547 33.3153 9.93307 32.7276 9.631C32.1399 9.32894 31.4183 9.56082 31.1158 10.1489C30.8133 10.7371 31.0445 11.4587 31.6322 11.7608C32.2199 12.0628 32.9415 11.8309 33.244 11.2428Z" fill="#00030F"/>
<path d="M30.9182 18.7259C30.7563 17.7323 29.8197 17.0587 28.8262 17.2215C27.8327 17.3843 27.1585 18.3217 27.3204 19.3154C27.4823 20.309 28.4189 20.9826 29.4124 20.8198C30.4059 20.6571 31.0801 19.7196 30.9182 18.7259Z" fill="#00030F"/>
<path d="M30.1808 19.7184C30.5675 19.1321 30.4061 18.3436 29.8202 17.9573C29.2344 17.5709 28.446 17.733 28.0592 18.3194C27.6725 18.9057 27.8339 19.6942 28.4198 20.0806C29.0056 20.4669 29.794 20.3048 30.1808 19.7184Z" fill="#B53071"/>
<path d="M28.6041 19.6672C28.3199 19.2016 28.4671 18.5936 28.9329 18.3089C29.1552 18.173 29.4101 18.1358 29.6465 18.1843C29.3391 17.9907 28.936 17.9749 28.6048 18.1773C28.1391 18.4619 27.9919 19.0699 28.2761 19.5356C28.4244 19.7788 28.6612 19.9348 28.92 19.9879C28.7953 19.9095 28.6862 19.8018 28.6041 19.6672Z" fill="#FFF6E1"/>
<path d="M21.4749 22.7848L20.949 23.1062C20.7435 23.2317 20.4755 23.167 20.3502 22.9616L20.0293 22.4358C19.904 22.2304 19.636 22.1657 19.4306 22.2913L18.8522 22.6447C18.6467 22.7702 18.5818 23.0384 18.7071 23.2438L19.028 23.7696C19.1533 23.975 19.0884 24.2431 18.883 24.3686L18.3571 24.69C18.1516 24.8156 18.0867 25.0837 18.2121 25.2891L18.5649 25.8673C18.6902 26.0727 18.9582 26.1374 19.1636 26.0119L19.6896 25.6905C19.895 25.565 20.163 25.6297 20.2883 25.8351L20.6092 26.3608C20.7345 26.5662 21.0025 26.6309 21.208 26.5054L21.7864 26.152C21.9918 26.0264 22.0567 25.7583 21.9314 25.5529L21.6105 25.0271C21.4852 24.8217 21.5501 24.5536 21.7555 24.4281L22.2814 24.1067C22.4869 23.9811 22.5518 23.713 22.4265 23.5076L22.0736 22.9293C21.9482 22.7241 21.68 22.6593 21.4749 22.7848Z" fill="#00030F"/>
<path d="M17.5988 18.3556L18.5803 17.7557C18.7987 17.6223 18.8678 17.3361 18.7347 17.1179C18.6014 16.8996 18.3154 16.8307 18.0972 16.964L17.1157 17.5639C16.8973 17.6974 16.8282 17.9835 16.9613 18.2017C17.0945 18.4201 17.3805 18.4889 17.5988 18.3556Z" fill="#B53071"/>
<path d="M10.2474 24.2317C10.26 24.251 10.2725 24.27 10.2854 24.289C10.2894 24.2949 10.2933 24.3009 10.2973 24.3068C10.3143 24.3315 10.3315 24.3562 10.3488 24.3804C10.3494 24.381 10.3498 24.3818 10.3503 24.3824C10.3674 24.4062 10.3849 24.4298 10.4027 24.4531C10.4058 24.4571 10.4088 24.4613 10.4119 24.4653C10.4295 24.4884 10.4473 24.5112 10.4654 24.5337C10.4658 24.5342 10.4661 24.5347 10.4665 24.5353C11.6508 26.0148 13.7847 26.4192 15.4444 25.4049C17.2449 24.3046 17.8163 21.9448 16.7176 20.1446C15.619 18.3444 13.2605 17.775 11.4599 18.8755C10.1403 19.682 9.48113 21.1648 9.65552 22.6081C9.65605 22.6122 9.65641 22.6163 9.65689 22.6201C9.65939 22.6399 9.66217 22.6597 9.665 22.6797C9.71776 23.0517 9.82481 23.4152 9.98446 23.758C9.9853 23.7596 9.98586 23.7613 9.9867 23.7629C9.99691 23.7845 10.0071 23.8061 10.0177 23.8275C10.021 23.8343 10.0244 23.8411 10.0279 23.848C10.0369 23.866 10.046 23.884 10.0553 23.902C10.0608 23.9127 10.0665 23.9236 10.0723 23.9342C10.0803 23.9492 10.0881 23.9641 10.0962 23.9789C10.1044 23.9938 10.1128 24.0089 10.1212 24.0237C10.1275 24.0347 10.1337 24.0459 10.14 24.0569C10.1552 24.0834 10.1708 24.1096 10.1867 24.1358C10.202 24.161 10.2179 24.1859 10.2338 24.2106C10.2383 24.2179 10.2429 24.2247 10.2474 24.2317ZM12.1951 20.0803C13.3311 19.386 14.8195 19.7452 15.5126 20.881C16.2057 22.0168 15.8453 23.5059 14.7093 24.2001C13.5732 24.8944 12.0849 24.5352 11.3918 23.3994C10.6987 22.2636 11.059 20.7745 12.1951 20.0803Z" fill="#B53071"/>
<path d="M24.0088 14.4384L24.9903 13.8385C25.2086 13.7052 25.2778 13.4189 25.1447 13.2007C25.0114 12.9823 24.7255 12.9134 24.5072 13.0468L23.5257 13.6466C23.3074 13.78 23.2382 14.0662 23.3713 14.2845C23.5046 14.5028 23.7905 14.5717 24.0088 14.4384Z" fill="#B53071"/>
<path d="M17.1033 18.2317C16.9701 18.0133 17.0393 17.7273 17.2577 17.5938L18.2392 16.994C18.322 16.9435 18.4143 16.9221 18.5044 16.9267C18.3749 16.8772 18.2246 16.8862 18.0971 16.964L17.1156 17.5639C16.8972 17.6974 16.8281 17.9835 16.9612 18.2017C17.0441 18.3373 17.1857 18.4152 17.3335 18.4229C17.241 18.3876 17.1587 18.3227 17.1033 18.2317Z" fill="#FFF6E1"/>
<path d="M23.5134 14.3144C23.3801 14.096 23.4494 13.81 23.6678 13.6766L24.6493 13.0767C24.732 13.0262 24.8243 13.0048 24.9145 13.0094C24.7849 12.9599 24.6346 12.9689 24.5073 13.0466L23.5258 13.6465C23.3075 13.7798 23.2383 14.066 23.3714 14.2843C23.4542 14.4199 23.5959 14.4977 23.7437 14.5055C23.651 14.4704 23.5689 14.4053 23.5134 14.3144Z" fill="#FFF6E1"/>
<path d="M15.2192 20.9866C14.5828 20.0112 13.2759 19.7372 12.3002 20.3746C11.3245 21.0121 11.0495 22.3196 11.686 23.295C12.3224 24.2705 13.6293 24.5444 14.605 23.907C15.5807 23.2695 15.8557 21.962 15.2192 20.9866Z" fill="#00030F"/>
<path d="M14.8874 21.3231C14.4372 20.5308 13.4298 20.2541 12.6374 20.7052C11.8449 21.1562 11.5675 22.1641 12.0178 22.9564C12.468 23.7487 13.4754 24.0253 14.2678 23.5743C15.0603 23.1233 15.3377 22.1153 14.8874 21.3231Z" fill="#B53071"/>
<path d="M12.68 23.0391C12.279 22.382 12.4867 21.5234 13.1441 21.1218C13.4579 20.9299 13.8177 20.8774 14.1516 20.9459C13.7177 20.6729 13.1488 20.6504 12.6813 20.936C12.024 21.3377 11.8161 22.1961 12.2173 22.8534C12.4269 23.1966 12.7611 23.417 13.1261 23.4919C12.9498 23.3809 12.7957 23.2288 12.68 23.0391Z" fill="#FFF6E1"/>
<path d="M28.1029 6.73601L27.976 6.52824C27.9457 6.47841 27.8803 6.46265 27.8305 6.49307L24.9484 8.25427C24.8088 8.33966 24.7644 8.52255 24.8497 8.66212L24.8824 8.71593C24.8892 8.72703 24.8951 8.73828 24.9005 8.7499L28.1315 6.77553C28.1211 6.76312 28.1115 6.75016 28.1029 6.73601Z" fill="#B53071"/>
<path d="M13.0944 15.9198L13.0617 15.866C12.9764 15.7264 12.7936 15.6822 12.654 15.7676L9.77194 17.5288C9.72209 17.5592 9.70629 17.6246 9.73665 17.6744L9.86353 17.8822C9.87209 17.8964 9.87911 17.9109 9.88557 17.9256L13.1165 15.9512C13.1087 15.9413 13.1012 15.9309 13.0944 15.9198Z" fill="#B53071"/>
<path d="M21.6239 16.6236L21.6186 16.6268L21.6121 16.6306C21.1349 16.9223 20.9837 17.5476 21.2747 18.0247C21.5658 18.5018 22.1909 18.6525 22.668 18.3611L22.6738 18.3575L22.6798 18.3538C23.157 18.0622 23.3082 17.4368 23.0172 16.9598C22.7263 16.4827 22.1012 16.332 21.6239 16.6236Z" fill="#B53071"/>
<path d="M17.7573 18.6154L18.7387 18.0155C19.1003 17.7944 19.215 17.3206 18.9945 16.9592C18.7738 16.5977 18.3001 16.4834 17.9387 16.7043L16.9572 17.3042C16.5957 17.5252 16.481 17.9991 16.7015 18.3605C16.9222 18.7219 17.3958 18.8363 17.7573 18.6154ZM17.1157 17.5639L18.0972 16.964C18.3156 16.8306 18.6014 16.8996 18.7347 17.1179C18.8679 17.3363 18.7987 17.6223 18.5803 17.7558L17.5988 18.3556C17.3804 18.4891 17.0945 18.4201 16.9613 18.2017C16.8282 17.9835 16.8973 17.6974 17.1157 17.5639Z" fill="#00030F"/>
<path d="M14.7093 24.2001C15.8453 23.5059 16.2059 22.0169 15.5126 20.881C14.8195 19.7452 13.3313 19.3858 12.1951 20.0803C11.0591 20.7745 10.6985 22.2635 11.3918 23.3994C12.0849 24.5352 13.5731 24.8945 14.7093 24.2001ZM12.3536 20.34C13.3464 19.7333 14.647 20.0473 15.2528 21.0397C15.8585 22.0324 15.5435 23.3336 14.5508 23.9404C13.558 24.5471 12.2574 24.2331 11.6516 23.2407C11.0459 22.248 11.3609 20.9468 12.3536 20.34Z" fill="#00030F"/>
<path d="M21.4654 16.3639L21.46 16.3672L21.4537 16.3712C20.8333 16.7504 20.6365 17.5635 21.015 18.1838C21.3936 18.8041 22.2063 19.0002 22.8268 18.621L22.8326 18.6175L22.8385 18.6137C23.4589 18.2345 23.6557 17.4214 23.2772 16.8011C22.8986 16.1808 22.0859 15.9847 21.4654 16.3639ZM22.6799 18.3539L22.6739 18.3576L22.6681 18.3612C22.1909 18.6528 21.5659 18.5019 21.2748 18.0248C20.9836 17.5476 21.135 16.9224 21.6123 16.6307L21.6188 16.6269L21.6241 16.6237C22.1013 16.3321 22.7263 16.483 23.0174 16.9601C23.3085 17.437 23.1571 18.0623 22.6799 18.3539Z" fill="#00030F"/>
<path d="M27.5896 16.5136C26.2071 17.3586 25.7684 19.1705 26.612 20.5527C27.4556 21.935 29.2666 22.3722 30.6492 21.5272C32.0318 20.6822 32.4704 18.8703 31.6268 17.4881C30.7832 16.1058 28.9722 15.6686 27.5896 16.5136ZM30.4907 21.2675C29.2514 22.0247 27.6281 21.633 26.8719 20.3938C26.1159 19.1548 26.509 17.5307 27.7482 16.7732C28.9876 16.0157 30.6109 16.4077 31.3671 17.6466C32.1232 18.8859 31.73 20.5099 30.4907 21.2675Z" fill="#00030F"/>
<path d="M24.1674 14.6981L25.1489 14.0982C25.5105 13.8772 25.6251 13.4033 25.4046 13.0419C25.1839 12.6805 24.7103 12.5661 24.3489 12.787L23.3674 13.3869C23.0058 13.608 22.8911 14.0818 23.1117 14.4432C23.3323 14.8047 23.806 14.919 24.1674 14.6981ZM23.5258 13.6466L24.5073 13.0468C24.7256 12.9134 25.0116 12.9823 25.1448 13.2007C25.2781 13.419 25.2088 13.705 24.9904 13.8385L24.0089 14.4384C23.7907 14.5717 23.5047 14.5028 23.3714 14.2845C23.2383 14.0662 23.3076 13.78 23.5258 13.6466Z" fill="#00030F"/>
<path d="M18.7895 21.8914C17.4069 22.7364 16.9683 24.5482 17.8119 25.9305C18.6555 27.3128 20.4664 27.75 21.849 26.905C23.2316 26.06 23.6702 24.2481 22.8266 22.8658C21.9832 21.4837 20.1721 21.0466 18.7895 21.8914ZM21.6906 26.6453C20.4512 27.4027 18.8279 27.0107 18.0717 25.7718C17.3155 24.5326 17.7087 22.9086 18.9479 22.1511C20.1872 21.3938 21.8106 21.7856 22.5669 23.0246C23.323 24.2637 22.9299 25.888 21.6906 26.6453Z" fill="#00030F"/>
<path d="M29.5491 10.3486C29.5386 10.3596 29.5215 10.3747 29.4976 10.3941C29.4737 10.4134 29.449 10.4307 29.4243 10.4459C29.3723 10.4777 29.3278 10.493 29.291 10.4913C29.2543 10.4896 29.2185 10.4604 29.184 10.4039L29.044 10.1744C28.99 10.1498 28.9313 10.1221 28.8672 10.0913C28.8032 10.0605 28.7392 10.0279 28.6749 9.99426C28.6107 9.9603 28.5494 9.926 28.4907 9.89099C28.4321 9.8561 28.3812 9.82227 28.3378 9.78955C28.34 9.76011 28.3487 9.72916 28.3639 9.69658C28.3791 9.664 28.4053 9.6363 28.4427 9.61345C28.4868 9.58645 28.5283 9.57354 28.5672 9.57473C28.6061 9.57593 28.6532 9.5938 28.7085 9.62834L29.0229 9.82589L29.033 9.81972C29.0275 9.77497 29.0219 9.73445 29.0162 9.69832C29.0104 9.66219 29.0044 9.6261 28.9981 9.59034C28.9919 9.55459 28.9855 9.51725 28.9789 9.47849C28.9723 9.43974 28.9646 9.3952 28.9555 9.34465C28.9697 9.32211 28.9875 9.30015 29.009 9.27933C29.0304 9.25851 29.0525 9.24109 29.0752 9.22719C29.1149 9.20295 29.1549 9.19275 29.1954 9.19688C29.236 9.20084 29.269 9.22379 29.2946 9.26568C29.3028 9.27932 29.3099 9.29748 29.3161 9.32017C29.3221 9.34302 29.327 9.38002 29.3305 9.43151C29.3339 9.48299 29.3365 9.5541 29.3382 9.64484C29.3399 9.73557 29.34 9.8552 29.3389 10.0037L29.5491 10.3486Z" fill="#FFF6E1"/>
<path d="M32.5199 11.2331C32.5006 11.245 32.4776 11.2582 32.4508 11.2729C32.424 11.2877 32.3958 11.3019 32.366 11.3155C32.3363 11.3291 32.306 11.3416 32.2758 11.3531C32.2455 11.3646 32.2162 11.3727 32.188 11.3775C32.1113 11.3918 32.0549 11.3695 32.0188 11.3106L31.5345 10.517C31.5199 10.4932 31.5153 10.4709 31.5204 10.4498C31.5254 10.4289 31.5369 10.4074 31.5547 10.3858C31.5849 10.3487 31.627 10.3092 31.681 10.2678C31.735 10.2264 31.7925 10.1867 31.8538 10.1495C31.9988 10.0608 32.1254 10.017 32.2331 10.018C32.3412 10.0189 32.4261 10.0703 32.4884 10.1723C32.5195 10.2232 32.5316 10.2762 32.5246 10.3311C32.5175 10.386 32.4943 10.4371 32.455 10.4846C32.5214 10.4658 32.5862 10.4657 32.6499 10.4845C32.7134 10.5031 32.7646 10.5442 32.8033 10.6078C32.8717 10.72 32.8807 10.8284 32.8302 10.933C32.7798 11.0375 32.6763 11.1376 32.5199 11.2331ZM32.0103 10.6464L32.1343 10.5705C32.183 10.5407 32.213 10.5101 32.224 10.4785C32.235 10.4469 32.2298 10.4134 32.2084 10.3783C32.1897 10.3476 32.1621 10.3312 32.1256 10.3284C32.0889 10.3259 32.0452 10.3402 31.9943 10.3713C31.9774 10.3816 31.9581 10.3943 31.9366 10.4088C31.9151 10.4234 31.899 10.4358 31.8879 10.4456L32.0103 10.6464ZM32.2632 11.061C32.2819 11.0559 32.3042 11.0465 32.3302 11.0329C32.3562 11.0193 32.3804 11.0058 32.4031 10.9919C32.4485 10.9642 32.4804 10.9317 32.499 10.8948C32.5176 10.8577 32.5147 10.8193 32.4905 10.7797C32.4677 10.7423 32.4389 10.7233 32.4044 10.7227C32.3698 10.7221 32.3269 10.7373 32.276 10.7684L32.1367 10.8535L32.2632 11.061Z" fill="#FFF6E1"/>
<path d="M27.6106 12.9514C27.6065 12.932 27.6049 12.9113 27.6052 12.8893C27.6059 12.8672 27.6096 12.845 27.617 12.8225C27.6244 12.8001 27.6357 12.7785 27.6508 12.7575C27.6661 12.7365 27.6861 12.7184 27.711 12.7033C27.7439 12.6832 27.7777 12.6738 27.8128 12.675C27.8477 12.6761 27.8903 12.6888 27.9406 12.7124L28.1967 12.8335L28.2158 12.4252C28.222 12.4152 28.2322 12.403 28.2462 12.3891C28.2602 12.3752 28.2751 12.3631 28.291 12.3536C28.3431 12.3218 28.3915 12.3093 28.4363 12.3162C28.481 12.3232 28.5145 12.3447 28.5364 12.381C28.5558 12.4127 28.5647 12.4461 28.5636 12.4811C28.5624 12.516 28.5582 12.5597 28.5515 12.6121L28.5071 12.9333L29.0258 13.16C29.0424 13.2075 29.0429 13.2526 29.0278 13.2952C29.0126 13.3378 28.9796 13.3748 28.9286 13.4061C28.8956 13.4262 28.8624 13.4353 28.8285 13.4334C28.7946 13.4316 28.7531 13.4184 28.704 13.3939L28.4337 13.2605L28.4166 13.7143C28.4083 13.7211 28.4002 13.727 28.3927 13.7324C28.385 13.7378 28.3774 13.7429 28.3693 13.7478C28.3047 13.7873 28.2491 13.8034 28.2027 13.796C28.1563 13.7887 28.1213 13.7658 28.0978 13.7273C28.0777 13.6944 28.0673 13.6616 28.0667 13.6284C28.066 13.5954 28.0686 13.5546 28.0748 13.5057L28.1132 13.1674L27.6106 12.9514Z" fill="#FFF6E1"/>
<path d="M30.9228 13.4488C30.9352 13.4257 30.9577 13.3971 30.9907 13.3631C31.0235 13.3289 31.0599 13.2999 31.0996 13.2756C31.1562 13.2411 31.2114 13.2185 31.2651 13.2084C31.3187 13.1981 31.3624 13.2068 31.3964 13.2343C31.4526 13.2807 31.5167 13.3358 31.5881 13.3994C31.6595 13.463 31.7327 13.5291 31.8073 13.598C31.8818 13.6666 31.9553 13.7347 32.0274 13.8019C32.0996 13.869 32.1631 13.9286 32.218 13.9804C32.2141 14.0046 32.2015 14.0298 32.1802 14.056C32.1589 14.0821 32.1294 14.1067 32.092 14.1296C32.0648 14.1463 32.0404 14.158 32.019 14.1648C31.9975 14.1717 31.9782 14.1743 31.9607 14.1725C31.9433 14.1707 31.9263 14.1647 31.91 14.1545C31.8936 14.1442 31.8767 14.1313 31.8593 14.1155L31.757 14.017L31.4494 14.2051C31.461 14.2446 31.4734 14.2853 31.4866 14.3271C31.4997 14.369 31.512 14.4096 31.5238 14.4491C31.5113 14.4643 31.4976 14.4795 31.4824 14.4941C31.4674 14.5088 31.4473 14.5238 31.4224 14.5389C31.3646 14.5741 31.3157 14.5904 31.276 14.5876C31.2361 14.5847 31.2055 14.5657 31.184 14.5308C31.1744 14.5149 31.1668 14.4977 31.1617 14.479C31.1567 14.4604 31.1504 14.4386 31.1428 14.4136C31.1321 14.3782 31.12 14.3335 31.1066 14.2796C31.0931 14.2256 31.0788 14.1671 31.0637 14.104C31.0486 14.0409 31.0337 13.9759 31.019 13.9083C31.0045 13.8411 30.9906 13.7776 30.9776 13.718C30.9645 13.6583 30.9532 13.6049 30.9439 13.5577C30.9341 13.5102 30.9272 13.474 30.9228 13.4488ZM31.2605 13.5434C31.2738 13.6007 31.2881 13.6645 31.3039 13.7349C31.3196 13.8054 31.338 13.8754 31.3588 13.9451L31.5696 13.8164C31.5164 13.7649 31.4638 13.7151 31.4117 13.6666C31.3597 13.6184 31.3126 13.5751 31.2708 13.537L31.2605 13.5434Z" fill="#FFF6E1"/>
<path d="M15.899 31.3888C15.0068 29.9268 14.2154 28.111 13.5414 26.2689C12.696 26.2863 11.8584 26.0442 11.1515 25.5716C12.002 27.8187 13.6987 32.1481 14.7227 33.7321C15.4387 34.8396 16.1865 35.6196 16.9453 36.0502C17.6757 36.465 18.3781 36.5311 19.0326 36.2466C19.7103 35.9521 20.2734 35.2876 20.5774 34.4233C20.7364 33.9716 20.8758 33.3243 20.8297 32.5002C19.6144 33.9084 17.8411 34.5714 15.899 31.3888Z" fill="#2E2594"/>
<path d="M9.42544 18.9674C9.30927 19.3491 9.23415 19.9945 9.5039 20.9408C9.78672 20.0098 10.3963 19.1742 11.2868 18.6252C11.1841 18.1923 11.1036 17.8351 11.0461 17.5732L9.73739 18.3731C9.6725 18.4459 9.52606 18.6374 9.42544 18.9674Z" fill="#2E2594"/>
<path d="M37.3513 18.2792C36.4591 16.8172 35.2064 15.2833 33.8768 13.8418C34.2784 13.0972 34.4458 12.2409 34.3488 11.3958C35.9578 13.1793 39.0315 16.6671 39.9719 18.3023C40.6295 19.4455 40.9813 20.4674 41.0176 21.3398C41.0527 22.1797 40.7905 22.835 40.2389 23.2877C39.6675 23.7564 38.8195 23.9542 37.9124 23.8302C37.4382 23.7655 36.7991 23.5939 36.0877 23.1763C37.894 22.7376 39.2934 21.4618 37.3513 18.2792Z" fill="#2E2594"/>
<path d="M29.2659 6.84269C29.6583 6.91361 30.2664 7.14139 30.9843 7.81396C30.0276 7.64052 29.0065 7.80157 28.1115 8.34338C27.7735 8.05432 27.4928 7.81943 27.2864 7.64853L28.5951 6.84864C28.6897 6.82441 28.9267 6.78136 29.2659 6.84269Z" fill="#2E2594"/>
<path d="M34.0612 10.2845C34.0606 10.2833 34.0603 10.282 34.0596 10.2808C34.0341 10.2197 34.007 10.1592 33.9785 10.0994C33.9759 10.094 33.9733 10.0885 33.9706 10.083C33.9585 10.0581 33.9463 10.0333 33.9338 10.0088C33.9312 10.0039 33.929 9.99907 33.9265 9.99426C33.912 9.9661 33.8972 9.93798 33.8822 9.90992C33.8791 9.90446 33.876 9.899 33.8733 9.89349C33.8608 9.87081 33.8483 9.8483 33.8355 9.82583C33.8312 9.81824 33.8269 9.81065 33.8225 9.80324C33.8067 9.77587 33.7906 9.74856 33.7741 9.72145C33.7571 9.69343 33.7396 9.66561 33.7219 9.63813C33.7147 9.62695 33.7072 9.61581 33.7 9.60464C33.6898 9.58901 33.6795 9.57339 33.669 9.55782C33.659 9.54316 33.649 9.52868 33.6391 9.51431C33.6313 9.50322 33.6237 9.49225 33.6159 9.48117C33.6037 9.46384 33.5913 9.44668 33.5788 9.42968C33.5739 9.42292 33.5687 9.41621 33.5638 9.40945C33.5488 9.38909 33.5334 9.36878 33.5181 9.34876C33.5175 9.34812 33.517 9.34749 33.5165 9.34668C33.2783 9.03809 33.0024 8.77115 32.6994 8.54876C32.6914 8.5428 32.6835 8.53711 32.6756 8.53114C32.6628 8.52191 32.6499 8.51267 32.6369 8.5036C32.621 8.4924 32.6049 8.48108 32.5889 8.47004C32.5819 8.46523 32.575 8.46054 32.5679 8.45573C32.2601 8.24709 31.9237 8.07946 31.5665 7.9596C31.4823 7.8738 31.4047 7.79521 31.3353 7.72604C29.8684 6.26488 28.7381 6.48772 28.4894 6.56162L28.4874 6.55845L28.4746 6.56623C28.4555 6.57226 28.4437 6.5768 28.4396 6.57835L28.4275 6.5831L28.4164 6.58987C28.3982 6.60083 28.3745 6.59527 28.3634 6.57703L28.2365 6.36926C28.1187 6.17629 27.8657 6.1151 27.6726 6.23325L24.7905 7.99446C24.5076 8.1673 24.4178 8.53806 24.5905 8.82076L24.6232 8.87457C24.6341 8.89241 24.629 8.91549 24.6113 8.92698L19.2829 12.3982L18.9262 12.6163L13.4061 15.7743C13.3879 15.7847 13.3651 15.7789 13.3542 15.761L13.3214 15.7072C13.1489 15.4244 12.7783 15.3349 12.4956 15.5079L9.61348 17.2691C9.42046 17.387 9.35908 17.6402 9.47686 17.8332L9.60375 18.0409C9.61469 18.059 9.60911 18.0828 9.59087 18.0939L9.57976 18.1007L9.56982 18.1093C9.52861 18.1454 8.56869 19.0186 9.26756 21.2114C9.29722 21.3042 9.33146 21.4091 9.36951 21.524C9.31291 21.8966 9.30819 22.2728 9.3531 22.6421C9.35404 22.6505 9.3551 22.6588 9.3562 22.6673C9.35865 22.6869 9.36122 22.7062 9.36408 22.7255C9.36633 22.7411 9.36859 22.7568 9.37084 22.7724C9.37229 22.7822 9.37402 22.7919 9.37547 22.8017C9.43483 23.1732 9.54619 23.5408 9.71172 23.8939C9.71198 23.8946 9.71223 23.8953 9.71277 23.8959C9.72349 23.9189 9.73461 23.9416 9.7459 23.9645C9.74957 23.9719 9.75329 23.9795 9.75697 23.9869C9.76643 24.0057 9.77605 24.0247 9.7858 24.0434C9.79196 24.0554 9.79823 24.0671 9.80456 24.0792C9.81278 24.0948 9.82112 24.1103 9.82962 24.1259C9.83855 24.1424 9.84771 24.1585 9.85692 24.1748C9.86348 24.1866 9.87004 24.1983 9.87672 24.2098C9.89311 24.2381 9.90977 24.2663 9.92701 24.2945C9.94349 24.3216 9.96049 24.3483 9.97749 24.3751C9.98218 24.3824 9.98699 24.3896 9.99168 24.397C10.0058 24.4187 10.0201 24.4402 10.0346 24.4616C10.0382 24.4667 10.0415 24.4719 10.045 24.4771C10.0631 24.5034 10.0813 24.5295 10.0997 24.5552C10.1029 24.5595 10.1059 24.5637 10.1091 24.5679C10.1254 24.5904 10.142 24.6129 10.1586 24.6348C10.1622 24.6396 10.1658 24.6443 10.1692 24.649C10.2096 24.702 10.251 24.7538 10.2937 24.8045C10.2944 24.8052 10.2952 24.8063 10.2959 24.807C10.4184 24.9524 10.5508 25.0893 10.6921 25.2165C11.4656 27.2799 13.351 32.1716 14.4668 33.8976C15.2096 35.0466 15.9927 35.8598 16.7947 36.3152C17.6013 36.7731 18.4169 36.846 19.1534 36.526C19.2593 36.4799 19.3625 36.4261 19.4627 36.3649C20.0774 35.9891 20.5786 35.3359 20.8642 34.5243C21.2329 33.4763 21.2356 32.2491 20.8716 30.9749C20.564 29.8981 20.9792 28.7407 22.1055 27.5351C23.0401 26.5345 24.432 25.5119 26.3614 24.4088L26.3653 24.4066L26.369 24.4042C28.2307 23.1907 29.7755 22.4184 31.0919 22.0434C32.6783 21.5914 33.8966 21.7505 34.7135 22.5162C35.6799 23.4219 36.772 23.9803 37.8719 24.1307C38.8627 24.2661 39.7961 24.0444 40.4327 23.5218C41.0536 23.0124 41.3613 22.2531 41.3227 21.3257C41.2844 20.404 40.9189 19.3354 40.2368 18.1492C39.2121 16.3675 35.7249 12.4547 34.2437 10.8238C34.1956 10.6399 34.1345 10.4599 34.0612 10.2845ZM32.3985 8.70943C32.4021 8.71175 32.4054 8.71412 32.4089 8.71644C32.4253 8.72772 32.4414 8.73904 32.4577 8.75048C32.7644 8.96731 33.0387 9.22884 33.2707 9.52741C33.2718 9.52897 33.2729 9.53025 33.274 9.53181C33.2887 9.55063 33.303 9.56966 33.3172 9.58885C33.3218 9.59493 33.3263 9.60117 33.3308 9.60741C33.3428 9.62377 33.3546 9.64001 33.3663 9.65641C33.3734 9.66629 33.3802 9.67622 33.3873 9.68627C33.3968 9.70012 33.4066 9.71392 33.416 9.72794C33.4256 9.74207 33.435 9.75637 33.4445 9.77067C33.4516 9.78128 33.4585 9.79177 33.4655 9.80255C33.482 9.82819 33.4982 9.85404 33.5142 9.88006C33.5295 9.90532 33.5445 9.93063 33.5593 9.95627C33.5636 9.96357 33.5676 9.97075 33.5717 9.97793C33.5831 9.99788 33.5942 10.0179 33.6053 10.0379C33.6088 10.0441 33.6123 10.0504 33.6157 10.0568C33.6299 10.0833 33.6439 10.1096 33.6574 10.1363C33.6578 10.1371 33.6583 10.1379 33.6587 10.1387C33.6719 10.1648 33.6848 10.191 33.6975 10.2174C33.6997 10.222 33.702 10.2269 33.7042 10.2315C33.7166 10.2576 33.7287 10.2839 33.7407 10.3102C33.741 10.3109 33.7413 10.3114 33.7414 10.312C34.5157 12.0418 33.9006 14.1262 32.2409 15.1405C30.4404 16.2408 28.0818 15.6716 26.9832 13.8714C25.8847 12.0713 26.4557 9.71157 28.2564 8.61111C29.576 7.80462 31.1952 7.8951 32.3985 8.70943ZM24.8825 8.71593L24.8497 8.66213C24.7645 8.52256 24.8088 8.33967 24.9484 8.25428L27.8305 6.49307C27.8803 6.46266 27.9457 6.47841 27.976 6.52825L28.1029 6.73601C28.1115 6.75017 28.1213 6.76296 28.1315 6.77554L24.9005 8.74991C24.895 8.73845 24.8892 8.72704 24.8825 8.71593ZM9.86341 17.8824L9.73653 17.6746C9.70617 17.6248 9.72197 17.5594 9.77182 17.529L12.6539 15.7677C12.7935 15.6824 12.9765 15.7267 13.0615 15.8661L13.0943 15.9199C13.101 15.931 13.1086 15.9414 13.1163 15.9515L9.88533 17.9259C9.87911 17.9109 9.87209 17.8964 9.86341 17.8824ZM10.1401 24.0569C10.1338 24.0459 10.1276 24.0347 10.1213 24.0236C10.1127 24.0088 10.1045 23.9938 10.0963 23.9789C10.0882 23.9641 10.0802 23.9491 10.0724 23.9342C10.0667 23.9234 10.0611 23.9128 10.0554 23.902C10.0461 23.884 10.037 23.866 10.028 23.848C10.0247 23.8412 10.0213 23.8345 10.0178 23.8275C10.0073 23.8059 9.99699 23.7845 9.98678 23.7629C9.98594 23.7613 9.98538 23.7596 9.98454 23.758C9.82489 23.4152 9.71783 23.0517 9.66508 22.6797C9.6623 22.6599 9.65935 22.6401 9.65697 22.6201C9.65644 22.616 9.65596 22.6121 9.6556 22.6081C9.48121 21.1648 10.1403 19.682 11.46 18.8755C13.2605 17.7752 15.6192 18.3445 16.7177 20.1446C17.8162 21.9447 17.245 24.3046 15.4445 25.4049C13.7848 26.4192 11.6509 26.0148 10.4667 24.5354C10.4664 24.5348 10.466 24.5343 10.4656 24.5338C10.4476 24.5113 10.4299 24.4883 10.4122 24.4654C10.409 24.4614 10.406 24.4572 10.4029 24.4532C10.3853 24.4298 10.3678 24.4065 10.3506 24.3826C10.35 24.3819 10.3496 24.3811 10.3491 24.3805C10.3316 24.3562 10.3145 24.3316 10.2975 24.3069C10.2935 24.301 10.2895 24.2951 10.2856 24.2891C10.2728 24.2701 10.2601 24.251 10.2476 24.2318C10.2432 24.2248 10.2387 24.2178 10.234 24.2107C10.2181 24.186 10.2024 24.161 10.187 24.1359C10.1709 24.1096 10.1553 24.0834 10.1401 24.0569ZM39.9732 18.3012C40.6307 19.4444 40.9825 20.4663 41.0189 21.3387C41.0539 22.1786 40.7917 22.8339 40.2401 23.2866C39.6687 23.7553 38.8208 23.9531 37.9137 23.8291C37.1904 23.7303 36.0842 23.3836 34.9219 22.294C34.0219 21.4502 32.7054 21.2674 31.0091 21.7508C29.6638 22.134 28.0929 22.9178 26.207 24.147C24.2529 25.2646 22.8386 26.3051 21.8835 27.3275C20.6793 28.6168 20.2404 29.8722 20.5793 31.059C21.0171 32.5915 20.8198 33.7346 20.5774 34.4236C20.2732 35.2878 19.7103 35.9524 19.0326 36.2469C18.3782 36.5314 17.676 36.4652 16.9453 36.0505C16.1864 35.6198 15.4387 34.8398 14.7228 33.7324C13.6986 32.1482 12.002 27.819 11.1515 25.5719C12.4486 26.4386 14.1859 26.5308 15.6031 25.6647C17.5471 24.4768 18.1636 21.9295 16.9777 19.986C15.7917 18.0425 13.2455 17.4281 11.3017 18.6159C10.4032 19.1649 9.78851 20.0048 9.50405 20.9409C9.23418 19.9947 9.30942 19.3492 9.42559 18.9675C9.52605 18.6374 9.67265 18.446 9.73749 18.3729L13.5594 16.0374L19.0787 12.8795L19.4431 12.6569L24.777 9.18217C24.7855 9.17655 24.7939 9.17054 24.8018 9.16429L24.8031 9.16641L28.5967 6.84805C28.692 6.82357 28.9289 6.78068 29.2677 6.84178C29.6601 6.9127 30.2682 7.14048 30.9862 7.81304C30.0239 7.63863 28.9968 7.80239 28.0982 8.35133C26.1542 9.53925 25.5379 12.0867 26.7237 14.0301C27.9096 15.9736 30.4558 16.5879 32.3996 15.4002C33.8169 14.5341 34.5282 12.9453 34.3502 11.3949C35.959 13.1782 39.0327 16.666 39.9732 18.3012Z" fill="#00030F"/>
<path d="M22.3811 16.7457C22.2748 16.5715 21.9481 16.5772 21.6515 16.7584C21.3549 16.9397 21.2007 17.2279 21.307 17.4021C21.4133 17.5763 21.74 17.5706 22.0366 17.3894C22.3332 17.2081 22.4874 16.9199 22.3811 16.7457Z" fill="#FFF6E1"/>
<path d="M17.0729 14.401C17.9973 15.9158 19.7174 16.6517 21.3903 16.4125C21.411 16.3982 21.432 16.3843 21.4539 16.371L21.4602 16.3671L21.4656 16.3637C21.7268 16.204 22.0221 16.1468 22.3046 16.1797C22.5697 16.081 22.8293 15.9559 23.0798 15.8028C23.6252 15.4696 24.0733 15.0383 24.415 14.5464L24.1672 14.6978C23.8057 14.9188 23.3321 14.8045 23.1115 14.4429C22.8908 14.0814 23.0055 13.6075 23.3672 13.3866L24.3487 12.7867C24.5991 12.6337 24.903 12.6415 25.1394 12.7807C25.3108 11.7876 25.1392 10.736 24.5769 9.81465C24.503 9.69345 24.4237 9.57718 24.3397 9.46605L19.4424 12.6564L19.078 12.879L16.9142 14.1176C16.9631 14.2132 17.016 14.3078 17.0729 14.401Z" fill="#2E2594"/>
<path d="M32.4137 17.3164C32.0734 16.7162 31.9544 16.1602 31.9596 15.6337C30.0867 16.4896 27.8218 15.8298 26.7234 14.03C26.5955 13.8205 26.4889 13.604 26.4023 13.383C26.4152 14.1164 26.6915 14.8504 27.0934 15.3917C27.4478 15.8691 27.6906 16.1702 27.8023 16.3953C29.1527 15.7152 30.8259 16.1756 31.6267 17.4878C32.4703 18.8701 32.0317 20.682 30.6491 21.527C29.2665 22.372 27.4555 21.9347 26.6119 20.5525C26.6074 20.5452 26.6034 20.5379 26.5989 20.5306C26.614 21.3444 27.4426 22.0617 26.8553 22.404C26.125 22.8297 23.7534 24.5882 23.3171 23.5351C23.1265 23.0752 22.887 22.7867 22.6297 22.5822C22.7 22.6717 22.7658 22.7663 22.8265 22.8657C23.6701 24.248 23.2315 26.0599 21.8489 26.9049C20.9771 27.4376 19.935 27.4603 19.0726 27.0582C19.2075 27.4407 19.3477 27.8723 19.4743 28.3582C19.7294 29.3377 20.1158 29.9672 20.47 30.3657C20.4378 29.3871 20.9108 28.3681 21.8832 27.3271C22.8384 26.3045 24.2527 25.264 26.2067 24.1466C28.0926 22.9174 29.6635 22.1336 31.0088 21.7504C32.3406 21.3709 33.4382 21.4024 34.284 21.8416C33.7875 21.453 33.0403 21.1257 33.0621 20.508C33.0945 19.5813 33.221 18.7408 32.4137 17.3164Z" fill="#2E2594"/>
<path d="M23.2289 18.929C23.9218 18.5056 24.1407 17.6009 23.7181 16.9082C23.4387 16.4505 22.949 16.2001 22.4489 16.205C22.7821 16.2818 23.0854 16.487 23.2771 16.8013C23.6557 17.4216 23.4589 18.2347 22.8384 18.6139L22.8325 18.6176L22.8267 18.6212C22.291 18.9486 21.6123 18.8468 21.1931 18.4136C21.1984 18.4229 21.2036 18.4324 21.2093 18.4415C21.6319 19.1339 22.536 19.3523 23.2289 18.929Z" fill="#2E2594"/>
</g>
<defs>
<filter id="filter0_d_12_2737" x="0.0134277" y="0.17305" width="50.3125" height="48.549" filterUnits="userSpaceOnUse" color-interpolation-filters="sRGB">
<feFlood flood-opacity="0" result="BackgroundImageFix"/>
<feColorMatrix in="SourceAlpha" type="matrix" values="0 0 0 0 0 0 0 0 0 0 0 0 0 0 0 0 0 0 127 0" result="hardAlpha"/>
<feOffset dy="3"/>
<feGaussianBlur stdDeviation="4.5"/>
<feComposite in2="hardAlpha" operator="out"/>
<feColorMatrix type="matrix" values="0 0 0 0 0.180392 0 0 0 0 0.160784 0 0 0 0 0.611765 0 0 0 0.7 0"/>
<feBlend mode="normal" in2="BackgroundImageFix" result="effect1_dropShadow_12_2737"/>
<feBlend mode="normal" in="SourceGraphic" in2="effect1_dropShadow_12_2737" result="shape"/>
</filter>
<linearGradient id="paint0_linear_12_2737" x1="11.3109" y1="10.7482" x2="71.4816" y2="56.0302" gradientUnits="userSpaceOnUse">
<stop stop-color="#2E2594"/>
<stop offset="1" stop-color="#F73B6C"/>
</linearGradient>
</defs>
</svg>
