<svg width="39" height="28" viewBox="0 0 39 28" fill="none" xmlns="http://www.w3.org/2000/svg">
<path d="M28.4754 11.5194C28.4754 11.5194 25.4447 12.7978 21.6514 13.893C21.6514 13.893 24.3748 8.38271 23.9627 6.24241C23.9627 6.24241 22.5987 7.51068 21.0602 8.15481C20.4822 8.39559 19.8185 8.08888 19.629 7.4926C19.1214 5.90356 19.2047 4.04174 19.2047 4.04174C17.3067 5.11462 14.8742 10.7597 14.8742 10.7597C13.2504 7.16157 12.2613 4.02408 12.2613 4.02408C8.37875 -1.87978 0.721419 0.66869 0.721419 0.66869C5.95651 2.29097 5.58155 8.30919 5.58155 8.30919C11.3997 9.62804 9.20972 15.1465 9.20972 15.1465C12.118 19.0843 11.101 27.9692 11.101 27.9692C11.101 27.9692 17.0947 21.3865 21.9794 21.0515C21.9794 21.0515 24.7644 15.8095 29.5381 19.387C29.5381 19.387 33.8805 15.2021 38.5076 18.1395C38.5065 18.1381 35.4877 10.6533 28.4754 11.5194Z" fill="url(#paint0_linear_12_2820)"/>
<defs>
<linearGradient id="paint0_linear_12_2820" x1="23.0093" y1="-0.819715" x2="12.9581" y2="71.6985" gradientUnits="userSpaceOnUse">
<stop stop-color="#2E2594"/>
<stop offset="1" stop-color="#F73B6C"/>
</linearGradient>
</defs>
</svg>
