<svg width="72" height="72" viewBox="0 0 72 72" fill="none" xmlns="http://www.w3.org/2000/svg">
<g filter="url(#filter0_d_12_2815)">
<path d="M36.0139 10.7929L34.0578 14.5643L30.6392 17.0575L31.9306 21.1035L31.2557 25.2871L35.0271 27.2433L37.534 30.6735L41.5663 29.3704L45.7616 30.0317L47.7061 26.2739L51.1363 23.7671L49.8586 19.7328L50.5199 15.5375L46.7367 13.5949L44.2436 10.1764L40.1956 11.4424L36.0139 10.7929ZM36.1649 25.9447C34.717 24.7025 33.8219 22.936 33.6764 21.0338C33.531 19.1316 34.1472 17.2495 35.3894 15.8016C36.6316 14.3537 38.3982 13.4585 40.3004 13.3131C42.2026 13.1677 44.0847 13.7838 45.5326 15.0261C48.5352 17.6022 48.8823 22.1412 46.3061 25.1439C43.7066 28.1738 39.1676 28.5208 36.1649 25.9447ZM37.3086 24.5565C35.0429 22.6127 34.7968 19.2264 36.7406 16.9608C38.6727 14.7088 42.0687 14.4237 44.3343 16.3675C46.5999 18.3113 46.8617 21.7346 44.9296 23.9866C42.9858 26.2522 39.5742 26.5003 37.3086 24.5565ZM41.2615 30.5543L36.8916 32.1127L34.603 29.0356L31.2294 39.9551L35.7163 38.5918L39.1284 41.5192L41.2615 30.5543ZM30.6703 21.6334L29.7417 26.168L33.246 27.9661L23.0404 32.9294L23.7057 28.2874L20.2936 25.36L30.6703 21.6334Z" fill="url(#paint0_linear_12_2815)"/>
</g>
<defs>
<filter id="filter0_d_12_2815" x="0.293579" y="0.176422" width="70.8428" height="71.3428" filterUnits="userSpaceOnUse" color-interpolation-filters="sRGB">
<feFlood flood-opacity="0" result="BackgroundImageFix"/>
<feColorMatrix in="SourceAlpha" type="matrix" values="0 0 0 0 0 0 0 0 0 0 0 0 0 0 0 0 0 0 127 0" result="hardAlpha"/>
<feOffset dy="10"/>
<feGaussianBlur stdDeviation="10"/>
<feComposite in2="hardAlpha" operator="out"/>
<feColorMatrix type="matrix" values="0 0 0 0 0.0626668 0 0 0 0 0.0473334 0 0 0 0 0.4 0 0 0 0.35 0"/>
<feBlend mode="normal" in2="BackgroundImageFix" result="effect1_dropShadow_12_2815"/>
<feBlend mode="normal" in="SourceGraphic" in2="effect1_dropShadow_12_2815" result="shape"/>
</filter>
<linearGradient id="paint0_linear_12_2815" x1="50.7108" y1="11.0162" x2="-6.2325" y2="73.4211" gradientUnits="userSpaceOnUse">
<stop stop-color="#2E2594"/>
<stop offset="1" stop-color="#F73B6C"/>
</linearGradient>
</defs>
</svg>
