<svg width="47" height="45" viewBox="0 0 47 45" fill="none" xmlns="http://www.w3.org/2000/svg">
<g filter="url(#filter0_d_12_2910)">
<path d="M18.892 23.5494L18.3441 29.0424C18.2922 29.5702 18.6737 30.0446 19.1997 30.1033L24.8075 30.7256C25.3327 30.7831 25.8004 30.404 25.8535 29.8754L26.4014 24.3824L23.5588 20.3051C23.3058 19.9421 22.7948 19.8854 22.4763 20.1856L18.892 23.5494Z" fill="#390075"/>
<g opacity="0.7">
<g opacity="0.7">
<g opacity="0.7">
<path opacity="0.7" d="M20.3376 29.6125L20.8855 24.1195L24.1096 21.0952L23.5603 20.3077C23.3073 19.9447 22.7963 19.888 22.4779 20.1882L18.8935 23.552L18.3456 29.045C18.2938 29.5728 18.676 30.0485 19.2012 30.106L20.513 30.252C20.388 30.067 20.3146 29.8477 20.3376 29.6125Z" fill="white"/>
</g>
</g>
</g>
<path d="M27.9576 14.3268L29.2965 8.97938C29.4255 8.46576 29.1144 7.94126 28.6025 7.80631L23.1358 6.36964C22.624 6.23469 22.1058 6.5425 21.9767 7.05613L20.637 12.4022L22.8632 16.8462C23.0618 17.2416 23.5592 17.3725 23.9183 17.1229L27.9576 14.3268Z" fill="#390075"/>
<g opacity="0.7">
<g opacity="0.7">
<g opacity="0.7">
<path opacity="0.7" d="M27.4033 8.12699L26.0649 13.4723L22.4332 15.988L22.8632 16.8462C23.0619 17.2416 23.5593 17.3725 23.9184 17.1228L27.9568 14.3255L29.2952 8.98011C29.4242 8.46648 29.1123 7.94066 28.6013 7.80704L27.3224 7.47098C27.4204 7.66944 27.4605 7.89705 27.4033 8.12699Z" fill="white"/>
</g>
</g>
</g>
<path d="M17.7017 14.0548L12.2361 13.4486C11.7109 13.3912 11.2432 13.7702 11.19 14.2988L10.6276 19.9347C10.5757 20.4626 10.9572 20.9369 11.4832 20.9957L16.9487 21.6019L20.9732 18.7827C21.3315 18.5317 21.3828 18.0182 21.0812 17.6948L17.7017 14.0548Z" fill="#390075"/>
<g opacity="0.7">
<g opacity="0.7">
<g opacity="0.7">
<path opacity="0.7" d="M11.6906 15.4479L17.1561 16.0541L20.1946 19.3282L20.9718 18.7835C21.3302 18.5325 21.3814 18.019 21.0798 17.6955L17.7003 14.0556L12.236 13.4486C11.7108 13.3912 11.2418 13.771 11.19 14.2988L11.058 15.6172C11.2393 15.494 11.4565 15.4223 11.6906 15.4479Z" fill="white"/>
</g>
</g>
</g>
<path d="M28.1213 23.4883L33.4494 24.8877C33.9612 25.0226 34.4795 24.7148 34.6085 24.2012L35.9818 18.7154C36.1109 18.2018 35.7997 17.6773 35.2879 17.5423L29.9611 16.1422L25.566 18.3375C25.175 18.5334 25.0499 19.0326 25.3016 19.3964L28.1213 23.4883Z" fill="#390075"/>
<g opacity="0.7">
<g opacity="0.7">
<g opacity="0.7">
<path opacity="0.7" d="M34.2811 22.9912L28.9543 21.5911L26.4174 17.912L25.5687 18.336C25.1776 18.532 25.0525 19.0311 25.3042 19.3949L28.1253 23.4861L33.4507 24.8869C33.9625 25.0219 34.4821 24.7133 34.6098 24.2004L34.931 22.9171C34.7347 23.0137 34.5089 23.0518 34.2811 22.9912Z" fill="white"/>
</g>
</g>
</g>
</g>
<defs>
<filter id="filter0_d_12_2910" x="0.622864" y="0.337891" width="45.3881" height="44.3935" filterUnits="userSpaceOnUse" color-interpolation-filters="sRGB">
<feFlood flood-opacity="0" result="BackgroundImageFix"/>
<feColorMatrix in="SourceAlpha" type="matrix" values="0 0 0 0 0 0 0 0 0 0 0 0 0 0 0 0 0 0 127 0" result="hardAlpha"/>
<feOffset dy="4"/>
<feGaussianBlur stdDeviation="5"/>
<feComposite in2="hardAlpha" operator="out"/>
<feColorMatrix type="matrix" values="0 0 0 0 0.180392 0 0 0 0 0.160784 0 0 0 0 0.611765 0 0 0 0.4 0"/>
<feBlend mode="normal" in2="BackgroundImageFix" result="effect1_dropShadow_12_2910"/>
<feBlend mode="normal" in="SourceGraphic" in2="effect1_dropShadow_12_2910" result="shape"/>
</filter>
</defs>
</svg>
