<svg width="140" height="20" viewBox="0 0 140 20" fill="none" xmlns="http://www.w3.org/2000/svg">
<g clip-path="url(#clip0_37_969)">
<path d="M94.515 19.3036C94.0325 19.5511 93.485 19.1174 93.5825 18.5636L94.62 12.6511L90.2163 8.45614C89.805 8.06364 90.0188 7.34614 90.57 7.26864L96.6925 6.39864L99.4225 0.989893C99.6688 0.502393 100.335 0.502393 100.581 0.989893L103.311 6.39864L109.434 7.26864C109.985 7.34614 110.199 8.06364 109.786 8.45614L105.384 12.6511L106.421 18.5636C106.519 19.1174 105.971 19.5511 105.489 19.3036L100 16.4836L94.5138 19.3036H94.515Z" fill="#B53071"/>
</g>
<g clip-path="url(#clip1_37_969)">
<path d="M64.515 19.3036C64.0325 19.5511 63.485 19.1174 63.5825 18.5636L64.62 12.6511L60.2162 8.45614C59.805 8.06364 60.0187 7.34614 60.57 7.26864L66.6925 6.39864L69.4225 0.989893C69.6687 0.502393 70.335 0.502393 70.5812 0.989893L73.3112 6.39864L79.4337 7.26864C79.985 7.34614 80.1987 8.06364 79.7862 8.45614L75.3837 12.6511L76.4212 18.5636C76.5187 19.1174 75.9712 19.5511 75.4887 19.3036L70 16.4836L64.5137 19.3036H64.515Z" fill="#B53071"/>
</g>
<g clip-path="url(#clip2_37_969)">
<path d="M34.515 19.3036C34.0325 19.5511 33.485 19.1174 33.5825 18.5636L34.62 12.6511L30.2162 8.45614C29.805 8.06364 30.0187 7.34614 30.57 7.26864L36.6925 6.39864L39.4225 0.989893C39.6687 0.502393 40.335 0.502393 40.5812 0.989893L43.3112 6.39864L49.4337 7.26864C49.985 7.34614 50.1987 8.06364 49.7862 8.45614L45.3837 12.6511L46.4212 18.5636C46.5187 19.1174 45.9712 19.5511 45.4887 19.3036L40 16.4836L34.5137 19.3036H34.515Z" fill="#B53071"/>
</g>
<g clip-path="url(#clip3_37_969)">
<path d="M4.515 19.3036C4.0325 19.5511 3.485 19.1174 3.5825 18.5636L4.62 12.6511L0.216245 8.45614C-0.195005 8.06364 0.0187453 7.34614 0.569995 7.26864L6.6925 6.39864L9.42249 0.989893C9.66875 0.502393 10.335 0.502393 10.5812 0.989893L13.3112 6.39864L19.4337 7.26864C19.985 7.34614 20.1987 8.06364 19.7862 8.45614L15.3837 12.6511L16.4212 18.5636C16.5187 19.1174 15.9712 19.5511 15.4887 19.3036L10 16.4836L4.51375 19.3036H4.515Z" fill="#B53071"/>
</g>
<g clip-path="url(#clip4_37_969)">
<path d="M126.692 6.39875L129.422 0.99C129.475 0.881192 129.557 0.789292 129.659 0.724762C129.761 0.660232 129.879 0.625667 130 0.625C130.229 0.625 130.457 0.74625 130.581 0.99L133.311 6.39875L139.434 7.26875C139.586 7.29274 139.726 7.36864 139.829 7.48363C139.932 7.59863 139.993 7.74569 140 7.9C140.009 8.00273 139.994 8.10611 139.957 8.20242C139.921 8.29874 139.862 8.3855 139.787 8.45625L135.384 12.6513L136.421 18.5637C136.519 19.1175 135.971 19.5513 135.489 19.3037L130 16.4838L124.514 19.3037C124.456 19.3335 124.395 19.3546 124.331 19.3662C123.904 19.4412 123.496 19.0487 123.581 18.5637L124.619 12.6513L120.216 8.45625C120.148 8.3915 120.093 8.31337 120.056 8.22671C120.019 8.14005 120.001 8.04672 120.001 7.9525C120.001 7.8193 120.038 7.68868 120.107 7.575C120.157 7.49259 120.224 7.42228 120.304 7.36928C120.384 7.31627 120.475 7.28192 120.57 7.26875L126.692 6.39875ZM130 15.0338C130.101 15.0333 130.2 15.0574 130.29 15.1038L134.897 17.4713L134.03 12.525C134.01 12.4112 134.017 12.2942 134.053 12.1841C134.088 12.0741 134.15 11.9744 134.232 11.8938L137.866 8.43125L132.801 7.71125C132.696 7.69541 132.597 7.65439 132.511 7.59169C132.426 7.52899 132.357 7.44649 132.31 7.35125L130.001 2.77875L130 2.7825V15.0325V15.0338Z" fill="#B53071"/>
</g>
<defs>
<clipPath id="clip0_37_969">
<rect width="20" height="20" fill="white" transform="translate(90)"/>
</clipPath>
<clipPath id="clip1_37_969">
<rect width="20" height="20" fill="white" transform="translate(60)"/>
</clipPath>
<clipPath id="clip2_37_969">
<rect width="20" height="20" fill="white" transform="translate(30)"/>
</clipPath>
<clipPath id="clip3_37_969">
<rect width="20" height="20" fill="white"/>
</clipPath>
<clipPath id="clip4_37_969">
<rect width="20" height="20" fill="white" transform="translate(120)"/>
</clipPath>
</defs>
</svg>
