<svg width="17" height="15" viewBox="0 0 17 15" fill="none" xmlns="http://www.w3.org/2000/svg">
<path d="M2.80002 0.292969C2.05741 0.292969 1.34521 0.58797 0.820108 1.11308C0.295002 1.63818 0 2.35038 0 3.09299V3.3744L8.40007 7.89783L16.8001 3.3758V3.09299C16.8001 2.35038 16.5051 1.63818 15.98 1.11308C15.4549 0.58797 14.7427 0.292969 14.0001 0.292969H2.80002Z" fill="white"/>
<path d="M16.8001 4.96436L8.73188 9.30859C8.6299 9.36349 8.51589 9.39223 8.40007 9.39223C8.28426 9.39223 8.17025 9.36349 8.06827 9.30859L0 4.96436V11.4926C0 12.2352 0.295002 12.9474 0.820108 13.4725C1.34521 13.9976 2.05741 14.2926 2.80002 14.2926H14.0001C14.7427 14.2926 15.4549 13.9976 15.98 13.4725C16.5051 12.9474 16.8001 12.2352 16.8001 11.4926V4.96436Z" fill="white"/>
</svg>
