<svg width="140" height="20" viewBox="0 0 140 20" fill="none" xmlns="http://www.w3.org/2000/svg">
<g clip-path="url(#clip0_31_16)">
<path d="M94.515 19.3038C94.0325 19.5513 93.485 19.1175 93.5825 18.5638L94.62 12.6513L90.2163 8.45627C89.805 8.06377 90.0188 7.34627 90.57 7.26877L96.6925 6.39877L99.4225 0.990015C99.6688 0.502515 100.335 0.502515 100.581 0.990015L103.311 6.39877L109.434 7.26877C109.985 7.34627 110.199 8.06377 109.786 8.45627L105.384 12.6513L106.421 18.5638C106.519 19.1175 105.971 19.5513 105.489 19.3038L100 16.4838L94.5138 19.3038H94.515Z" fill="url(#paint0_linear_31_16)"/>
</g>
<g clip-path="url(#clip1_31_16)">
<path d="M64.515 19.3038C64.0325 19.5513 63.485 19.1175 63.5825 18.5638L64.62 12.6513L60.2163 8.45627C59.805 8.06377 60.0188 7.34627 60.57 7.26877L66.6925 6.39877L69.4225 0.990015C69.6688 0.502515 70.335 0.502515 70.5813 0.990015L73.3113 6.39877L79.4338 7.26877C79.985 7.34627 80.1988 8.06377 79.7863 8.45627L75.3838 12.6513L76.4213 18.5638C76.5188 19.1175 75.9713 19.5513 75.4888 19.3038L70 16.4838L64.5138 19.3038H64.515Z" fill="url(#paint1_linear_31_16)"/>
</g>
<g clip-path="url(#clip2_31_16)">
<path d="M34.515 19.3038C34.0325 19.5513 33.485 19.1175 33.5825 18.5638L34.62 12.6513L30.2163 8.45627C29.805 8.06377 30.0188 7.34627 30.57 7.26877L36.6925 6.39877L39.4225 0.990015C39.6688 0.502515 40.335 0.502515 40.5813 0.990015L43.3113 6.39877L49.4338 7.26877C49.985 7.34627 50.1988 8.06377 49.7863 8.45627L45.3838 12.6513L46.4213 18.5638C46.5188 19.1175 45.9713 19.5513 45.4888 19.3038L40 16.4838L34.5138 19.3038H34.515Z" fill="url(#paint2_linear_31_16)"/>
</g>
<g clip-path="url(#clip3_31_16)">
<path d="M4.51503 19.3038C4.03253 19.5513 3.48503 19.1175 3.58253 18.5638L4.62003 12.6513L0.216276 8.45627C-0.194974 8.06377 0.0187758 7.34627 0.570026 7.26877L6.69253 6.39877L9.42253 0.990015C9.66878 0.502515 10.335 0.502515 10.5813 0.990015L13.3113 6.39877L19.4338 7.26877C19.985 7.34627 20.1988 8.06377 19.7863 8.45627L15.3838 12.6513L16.4213 18.5638C16.5188 19.1175 15.9713 19.5513 15.4888 19.3038L10 16.4838L4.51378 19.3038H4.51503Z" fill="url(#paint3_linear_31_16)"/>
</g>
<g clip-path="url(#clip4_31_16)">
<path d="M126.692 6.39875L129.422 0.99C129.475 0.881192 129.557 0.789292 129.659 0.724762C129.761 0.660232 129.879 0.625667 130 0.625C130.229 0.625 130.457 0.74625 130.581 0.99L133.311 6.39875L139.434 7.26875C139.586 7.29274 139.726 7.36864 139.829 7.48363C139.932 7.59863 139.993 7.74569 140 7.9C140.009 8.00273 139.994 8.10611 139.957 8.20242C139.921 8.29874 139.862 8.3855 139.787 8.45625L135.384 12.6513L136.421 18.5637C136.519 19.1175 135.971 19.5513 135.489 19.3037L130 16.4838L124.514 19.3037C124.456 19.3335 124.395 19.3546 124.331 19.3662C123.904 19.4412 123.496 19.0487 123.581 18.5637L124.619 12.6513L120.216 8.45625C120.148 8.3915 120.093 8.31337 120.056 8.22671C120.019 8.14005 120.001 8.04672 120.001 7.9525C120.001 7.8193 120.038 7.68868 120.107 7.575C120.157 7.49259 120.224 7.42228 120.304 7.36928C120.384 7.31627 120.475 7.28192 120.57 7.26875L126.692 6.39875ZM130 15.0338C130.101 15.0333 130.2 15.0574 130.29 15.1038L134.897 17.4713L134.03 12.525C134.01 12.4112 134.017 12.2942 134.053 12.1841C134.088 12.0741 134.15 11.9744 134.232 11.8938L137.866 8.43125L132.801 7.71125C132.696 7.69541 132.597 7.65439 132.511 7.59169C132.426 7.52899 132.357 7.44649 132.31 7.35125L130.001 2.77875L130 2.7825V15.0325V15.0338Z" fill="url(#paint4_linear_31_16)"/>
</g>
<defs>
<linearGradient id="paint0_linear_31_16" x1="101.079" y1="-1.51991" x2="99.9132" y2="49.4233" gradientUnits="userSpaceOnUse">
<stop stop-color="#2E2594"/>
<stop offset="1" stop-color="#F73B6C"/>
</linearGradient>
<linearGradient id="paint1_linear_31_16" x1="71.0793" y1="-1.51991" x2="69.9132" y2="49.4233" gradientUnits="userSpaceOnUse">
<stop stop-color="#2E2594"/>
<stop offset="1" stop-color="#F73B6C"/>
</linearGradient>
<linearGradient id="paint2_linear_31_16" x1="41.0793" y1="-1.51991" x2="39.9132" y2="49.4233" gradientUnits="userSpaceOnUse">
<stop stop-color="#2E2594"/>
<stop offset="1" stop-color="#F73B6C"/>
</linearGradient>
<linearGradient id="paint3_linear_31_16" x1="11.0793" y1="-1.51991" x2="9.91324" y2="49.4233" gradientUnits="userSpaceOnUse">
<stop stop-color="#2E2594"/>
<stop offset="1" stop-color="#F73B6C"/>
</linearGradient>
<linearGradient id="paint4_linear_31_16" x1="131.079" y1="-1.51928" x2="129.913" y2="49.4236" gradientUnits="userSpaceOnUse">
<stop stop-color="#2E2594"/>
<stop offset="1" stop-color="#F73B6C"/>
</linearGradient>
<clipPath id="clip0_31_16">
<rect width="20" height="20" fill="white" transform="translate(90)"/>
</clipPath>
<clipPath id="clip1_31_16">
<rect width="20" height="20" fill="white" transform="translate(60)"/>
</clipPath>
<clipPath id="clip2_31_16">
<rect width="20" height="20" fill="white" transform="translate(30)"/>
</clipPath>
<clipPath id="clip3_31_16">
<rect width="20" height="20" fill="white"/>
</clipPath>
<clipPath id="clip4_31_16">
<rect width="20" height="20" fill="white" transform="translate(120)"/>
</clipPath>
</defs>
</svg>
