<svg width="42" height="6" viewBox="0 0 42 6" fill="none" xmlns="http://www.w3.org/2000/svg">
<g clip-path="url(#clip0_12_1644)">
<path d="M28.3545 5.79113C28.2097 5.86538 28.0455 5.73525 28.0747 5.56913L28.386 3.79538L27.0649 2.53688C26.9415 2.41913 27.0056 2.20388 27.171 2.18063L29.0077 1.91963L29.8267 0.297001C29.9006 0.150751 30.1005 0.150751 30.1744 0.297001L30.9934 1.91963L32.8301 2.18063C32.9955 2.20388 33.0596 2.41913 32.9359 2.53688L31.6151 3.79538L31.9264 5.56913C31.9556 5.73525 31.7914 5.86538 31.6466 5.79113L30 4.94513L28.3541 5.79113H28.3545Z" fill="url(#paint0_linear_12_1644)"/>
</g>
<g clip-path="url(#clip1_12_1644)">
<path d="M19.3545 5.79113C19.2097 5.86538 19.0455 5.73525 19.0747 5.56913L19.386 3.79538L18.0649 2.53688C17.9415 2.41913 18.0056 2.20388 18.171 2.18063L20.0077 1.91963L20.8267 0.297001C20.9006 0.150751 21.1005 0.150751 21.1744 0.297001L21.9934 1.91963L23.8301 2.18063C23.9955 2.20388 24.0596 2.41913 23.9359 2.53688L22.6151 3.79538L22.9264 5.56913C22.9556 5.73525 22.7914 5.86538 22.6466 5.79113L21 4.94513L19.3541 5.79113H19.3545Z" fill="url(#paint1_linear_12_1644)"/>
</g>
<g clip-path="url(#clip2_12_1644)">
<path d="M10.3545 5.79113C10.2097 5.86538 10.0455 5.73525 10.0747 5.56913L10.386 3.79538L9.06486 2.53688C8.94148 2.41913 9.00561 2.20388 9.17098 2.18063L11.0077 1.91963L11.8267 0.297001C11.9006 0.150751 12.1005 0.150751 12.1744 0.297001L12.9934 1.91963L14.8301 2.18063C14.9955 2.20388 15.0596 2.41913 14.9359 2.53688L13.6151 3.79538L13.9264 5.56913C13.9556 5.73525 13.7914 5.86538 13.6466 5.79113L12 4.94513L10.3541 5.79113H10.3545Z" fill="url(#paint2_linear_12_1644)"/>
</g>
<g clip-path="url(#clip3_12_1644)">
<path d="M1.35448 5.79113C1.20973 5.86538 1.04548 5.73525 1.07473 5.56913L1.38598 3.79538L0.0648583 2.53688C-0.0585167 2.41913 0.00560832 2.20388 0.170983 2.18063L2.00773 1.91963L2.82673 0.297001C2.90061 0.150751 3.10048 0.150751 3.17436 0.297001L3.99336 1.91963L5.83011 2.18063C5.99548 2.20388 6.05961 2.41913 5.93586 2.53688L4.61511 3.79538L4.92636 5.56913C4.95561 5.73525 4.79136 5.86538 4.64661 5.79113L2.99998 4.94513L1.35411 5.79113H1.35448Z" fill="url(#paint3_linear_12_1644)"/>
</g>
<g clip-path="url(#clip4_12_1644)">
<path d="M38.0077 1.91963L38.8267 0.297C38.8425 0.264358 38.8671 0.236787 38.8977 0.217429C38.9283 0.19807 38.9638 0.1877 39 0.1875C39.0686 0.1875 39.1372 0.223875 39.1744 0.297L39.9934 1.91963L41.8301 2.18062C41.8759 2.18782 41.9178 2.21059 41.9487 2.24509C41.9797 2.27959 41.9978 2.32371 42 2.37C42.0026 2.40082 41.9982 2.43183 41.9872 2.46073C41.9762 2.48962 41.9587 2.51565 41.9362 2.53688L40.6151 3.79538L40.9264 5.56913C40.9556 5.73525 40.7914 5.86538 40.6466 5.79112L39 4.94513L37.3541 5.79112C37.3369 5.80006 37.3185 5.80638 37.2994 5.80988C37.1711 5.83238 37.0489 5.71462 37.0744 5.56913L37.3856 3.79538L36.0649 2.53688C36.0443 2.51745 36.028 2.49401 36.0169 2.46801C36.0058 2.44202 36.0002 2.41402 36.0004 2.38575C36.0004 2.34579 36.0114 2.3066 36.0322 2.2725C36.047 2.24778 36.0672 2.22669 36.0912 2.21078C36.1152 2.19488 36.1425 2.18458 36.171 2.18062L38.0077 1.91963ZM39 4.51013C39.0303 4.51 39.0601 4.5172 39.087 4.53113L40.4692 5.24137L40.209 3.7575C40.2029 3.72337 40.2052 3.68826 40.2158 3.65524C40.2264 3.62222 40.2449 3.59231 40.2697 3.56813L41.3599 2.52938L39.8404 2.31337C39.8089 2.30862 39.7791 2.29632 39.7534 2.27751C39.7277 2.2587 39.707 2.23395 39.693 2.20537L39.0004 0.833625L39 0.83475V4.50975V4.51013Z" fill="url(#paint4_linear_12_1644)"/>
</g>
<defs>
<linearGradient id="paint0_linear_12_1644" x1="30.3238" y1="-0.455976" x2="29.9739" y2="14.827" gradientUnits="userSpaceOnUse">
<stop stop-color="#2E2594"/>
<stop offset="1" stop-color="#F73B6C"/>
</linearGradient>
<linearGradient id="paint1_linear_12_1644" x1="21.3238" y1="-0.455976" x2="20.9739" y2="14.827" gradientUnits="userSpaceOnUse">
<stop stop-color="#2E2594"/>
<stop offset="1" stop-color="#F73B6C"/>
</linearGradient>
<linearGradient id="paint2_linear_12_1644" x1="12.3238" y1="-0.455976" x2="11.9739" y2="14.827" gradientUnits="userSpaceOnUse">
<stop stop-color="#2E2594"/>
<stop offset="1" stop-color="#F73B6C"/>
</linearGradient>
<linearGradient id="paint3_linear_12_1644" x1="3.32375" y1="-0.455976" x2="2.97395" y2="14.827" gradientUnits="userSpaceOnUse">
<stop stop-color="#2E2594"/>
<stop offset="1" stop-color="#F73B6C"/>
</linearGradient>
<linearGradient id="paint4_linear_12_1644" x1="39.3238" y1="-0.455784" x2="38.974" y2="14.8271" gradientUnits="userSpaceOnUse">
<stop stop-color="#2E2594"/>
<stop offset="1" stop-color="#F73B6C"/>
</linearGradient>
<clipPath id="clip0_12_1644">
<rect width="6" height="6" fill="white" transform="translate(27)"/>
</clipPath>
<clipPath id="clip1_12_1644">
<rect width="6" height="6" fill="white" transform="translate(18)"/>
</clipPath>
<clipPath id="clip2_12_1644">
<rect width="6" height="6" fill="white" transform="translate(9)"/>
</clipPath>
<clipPath id="clip3_12_1644">
<rect width="6" height="6" fill="white"/>
</clipPath>
<clipPath id="clip4_12_1644">
<rect width="6" height="6" fill="white" transform="translate(36)"/>
</clipPath>
</defs>
</svg>
