<svg width="33" height="15" viewBox="0 0 33 15" fill="none" xmlns="http://www.w3.org/2000/svg">
<path fill-rule="evenodd" clip-rule="evenodd" d="M0.314545 7.75195C0.314545 7.48678 0.419881 7.23247 0.607384 7.04497C0.794888 6.85747 1.0492 6.75213 1.31436 6.75213L29.2711 6.75213L24.9779 2.46091C24.8849 2.36795 24.8112 2.25759 24.7609 2.13613C24.7106 2.01468 24.6847 1.8845 24.6847 1.75303C24.6847 1.62157 24.7106 1.49139 24.7609 1.36994C24.8112 1.24848 24.8849 1.13812 24.9779 1.04516C25.0708 0.952203 25.1812 0.878463 25.3027 0.828154C25.4241 0.777845 25.5543 0.751953 25.6858 0.751953C25.8172 0.751953 25.9474 0.777845 26.0689 0.828154C26.1903 0.878463 26.3007 0.952203 26.3936 1.04516L32.3925 7.04408C32.4857 7.13695 32.5595 7.24729 32.6099 7.36876C32.6603 7.49022 32.6863 7.62044 32.6863 7.75195C32.6863 7.88346 32.6603 8.01368 32.6099 8.13515C32.5595 8.25662 32.4857 8.36695 32.3925 8.45983L26.3936 14.4587C26.2059 14.6465 25.9513 14.752 25.6858 14.752C25.4203 14.752 25.1656 14.6465 24.9779 14.4587C24.7901 14.271 24.6847 14.0164 24.6847 13.7509C24.6847 13.4854 24.7901 13.2307 24.9779 13.043L29.2711 8.75177L1.31436 8.75177C1.04919 8.75177 0.794888 8.64643 0.607384 8.45893C0.41988 8.27143 0.314545 8.01712 0.314545 7.75195Z" fill="white"/>
</svg>
