<svg width="16" height="17" viewBox="0 0 16 17" fill="none" xmlns="http://www.w3.org/2000/svg">
<path d="M15.5437 11.5991L12.0437 10.0991C11.8941 10.0354 11.728 10.022 11.5701 10.0609C11.4123 10.0997 11.2714 10.1888 11.1686 10.3147L9.61861 12.2085C7.18598 11.0616 5.22828 9.10386 4.08132 6.67124L5.97511 5.12121C6.10126 5.01861 6.19055 4.8777 6.22945 4.71981C6.26836 4.56193 6.25477 4.39566 6.19074 4.24619L4.69071 0.746131C4.62043 0.585006 4.49613 0.453452 4.33925 0.374155C4.18237 0.294858 4.00273 0.272787 3.83132 0.311748L0.58126 1.06176C0.415998 1.09992 0.26855 1.19298 0.162983 1.32573C0.0574152 1.45848 -3.80697e-05 1.6231 1.8926e-08 1.79271C1.8926e-08 9.80848 6.49699 16.293 14.5003 16.293C14.6699 16.2931 14.8346 16.2357 14.9674 16.1301C15.1002 16.0245 15.1933 15.877 15.2315 15.7117L15.9815 12.4617C16.0202 12.2894 15.9977 12.1091 15.9178 11.9516C15.8379 11.7942 15.7056 11.6696 15.5437 11.5991Z" fill="white"/>
</svg>
